<svg width="1440" height="1383" viewBox="0 0 1440 1383" fill="none" xmlns="http://www.w3.org/2000/svg">
<path d="M321.417 141.145C186.738 111.963 114.285 330.177 -20.0238 290.653C-74.4961 274.624 -157 209.225 -157 209.225L-140.003 1157L1520.21 1112.95C1520.21 1112.95 1574.52 577.578 1503.21 345.384C1433.97 119.911 1343.33 127.311 1234.26 141.145C1155.32 151.158 1118.37 313.181 1039.79 290.653C955.788 266.57 936.281 27.57 852.325 2.31616C739.1 -31.7418 703.935 320.677 590.37 345.384C481.533 369.063 430.257 164.729 321.417 141.145Z" fill="url(#paint0_linear_38_183)"/>
<path d="M19.049 5.71842C-66.2252 34.4104 -159 138.839 -159 138.839V1383L1500.96 1343.06L1657 669.271C1563.47 512.599 1556.9 240.186 1410.93 196.183C1242.97 145.549 1182.04 439.212 1057.83 563.799C933.634 688.386 909.13 406.98 822.27 335.447C732.745 261.719 666.95 116.564 565.199 75.3505C448.806 28.2063 430.26 235.369 311.63 230.999C182.491 226.241 146.499 -37.1645 19.049 5.71842Z" fill="url(#paint1_linear_38_183)"/>
<defs>
<linearGradient id="paint0_linear_38_183" x1="691.5" y1="0" x2="691.5" y2="1157" gradientUnits="userSpaceOnUse">
<stop stop-color="#FF66C2"/>
<stop offset="1" stop-color="#FF7193" stop-opacity="0"/>
</linearGradient>
<linearGradient id="paint1_linear_38_183" x1="749" y1="1" x2="749" y2="1383" gradientUnits="userSpaceOnUse">
<stop stop-color="#9B87FF"/>
<stop offset="1" stop-color="#9B87FF" stop-opacity="0"/>
</linearGradient>
</defs>
</svg>
