<svg width="753" height="639" viewBox="0 0 753 639" fill="none" xmlns="http://www.w3.org/2000/svg">
<path d="M76.351 275.675C38.9655 292.734 30.6048 320.757 38.9655 366.159C57.6549 467.649 136.315 490.23 231.536 515.975C400.478 561.653 613.861 526.011 644.186 345.392C658.333 261.13 648.769 194.57 591.987 133.275C526.434 62.5115 445.228 55.9101 355.683 85.8087C269.912 114.447 279.349 233.485 192.034 256.392C125.768 273.777 139.003 247.088 76.351 275.675Z" fill="url(#paint0_linear_24_220)"/>
<path d="M157.256 176.389C116.732 172.181 96.2151 189.722 81.9902 228.239C50.1922 314.338 107.789 367.835 178.263 431.381C303.299 544.125 505.39 615.268 617.175 491.348C669.325 433.538 692.517 378.312 672.23 305.344C648.809 221.102 581.442 178.632 489.566 160.185C401.562 142.515 353.43 237.747 266.798 214.989C201.051 197.718 225.167 183.442 157.256 176.389Z" fill="url(#paint1_linear_24_220)" fill-opacity="0.2"/>
<path d="M258.677 176.586C271.275 167.437 271.803 157.297 264.329 142.887C247.622 110.676 215.583 110.375 176.949 110.543C108.403 110.841 30.6569 142.424 36.2172 205.61C38.8111 235.087 48.7442 256.46 76.1288 271.721C107.744 289.34 139.239 284.063 170.451 265.813C200.348 248.333 185.498 209.402 216.524 193.695C240.071 181.775 237.564 191.918 258.677 176.586Z" fill="url(#paint2_linear_24_220)" fill-opacity="0.2"/>
<path d="M484.526 223.064C467.357 214.236 482.144 181.759 501.575 178.968C523.657 175.797 521.927 247.34 510.081 231.53C498.235 215.72 475.213 184.322 477.895 185.21C480.576 186.098 508.617 195.388 522.303 199.922C535.988 204.455 499.931 230.985 484.526 223.064Z" stroke="#1DD6FF" stroke-width="3"/>
<path d="M559.191 237.21C547.494 235.343 548.761 213.111 559.191 207.622C571.044 201.384 585.783 244.28 575.576 237.21C565.369 230.141 545.385 216.001 547.104 216.001C548.823 216.001 566.802 216.001 575.576 216.001C584.35 216.001 569.688 238.886 559.191 237.21Z" stroke="#FFB800" stroke-width="3"/>
<path d="M538.334 190.643C533.216 189.8 533.77 179.76 538.334 177.281C543.519 174.464 549.967 193.836 545.502 190.643C541.036 187.451 532.293 181.065 533.046 181.065C533.798 181.065 541.663 181.065 545.502 181.065C549.341 181.065 542.926 191.4 538.334 190.643Z" stroke="#28C900" stroke-width="2"/>
<ellipse cx="34.5" cy="243.5" rx="23.5" ry="21.5" fill="url(#paint3_linear_24_220)" fill-opacity="0.4"/>
<ellipse cx="22" cy="282.5" rx="11" ry="10.5" fill="url(#paint4_linear_24_220)" fill-opacity="0.4"/>
<ellipse cx="234.5" cy="154.5" rx="11.5" ry="10.5" fill="url(#paint5_linear_24_220)" fill-opacity="0.4"/>
<ellipse cx="485" cy="511.5" rx="9" ry="5.5" fill="url(#paint6_linear_24_220)" fill-opacity="0.4"/>
<ellipse cx="540" cy="514" rx="24" ry="20" fill="url(#paint7_linear_24_220)" fill-opacity="0.4"/>
<ellipse cx="254.5" cy="512" rx="39.5" ry="34" fill="url(#paint8_linear_24_220)"/>
<ellipse cx="404" cy="168" rx="28" ry="24" fill="url(#paint9_linear_24_220)"/>
<ellipse cx="112" cy="154.5" rx="14" ry="11.5" fill="url(#paint10_linear_24_220)"/>
<path d="M98.1753 388.299C66.4495 400.397 89.7141 438.368 98.1753 468.862C103.642 488.563 102.679 504.831 120.761 516.629C141.07 529.88 165.263 531.022 184.623 516.629C212.283 496.066 183.265 462.551 163.595 435.353C145.659 410.553 128.168 376.862 98.1753 388.299Z" fill="url(#paint11_linear_24_220)"/>
<defs>
<linearGradient id="paint0_linear_24_220" x1="343" y1="69" x2="343" y2="534" gradientUnits="userSpaceOnUse">
<stop stop-color="#9B87FF"/>
<stop offset="1" stop-color="#FF66C2"/>
</linearGradient>
<linearGradient id="paint1_linear_24_220" x1="486.51" y1="141.506" x2="291.069" y2="509.57" gradientUnits="userSpaceOnUse">
<stop stop-color="#9B87FF"/>
<stop offset="1" stop-color="#FF66C2"/>
</linearGradient>
<linearGradient id="paint2_linear_24_220" x1="176.863" y1="270.264" x2="138.82" y2="113.347" gradientUnits="userSpaceOnUse">
<stop stop-color="#9B87FF"/>
<stop offset="1" stop-color="#FF66C2"/>
</linearGradient>
<linearGradient id="paint3_linear_24_220" x1="34.5" y1="222" x2="34.5" y2="265" gradientUnits="userSpaceOnUse">
<stop stop-color="#9B87FF"/>
<stop offset="1" stop-color="#FF66C2"/>
</linearGradient>
<linearGradient id="paint4_linear_24_220" x1="22" y1="272" x2="22" y2="293" gradientUnits="userSpaceOnUse">
<stop stop-color="#9B87FF"/>
<stop offset="1" stop-color="#FF66C2"/>
</linearGradient>
<linearGradient id="paint5_linear_24_220" x1="234.5" y1="144" x2="234.5" y2="165" gradientUnits="userSpaceOnUse">
<stop stop-color="#9B87FF"/>
<stop offset="1" stop-color="#FF66C2"/>
</linearGradient>
<linearGradient id="paint6_linear_24_220" x1="485" y1="506" x2="485" y2="517" gradientUnits="userSpaceOnUse">
<stop stop-color="#9B87FF"/>
<stop offset="1" stop-color="#FF66C2"/>
</linearGradient>
<linearGradient id="paint7_linear_24_220" x1="540" y1="494" x2="540" y2="534" gradientUnits="userSpaceOnUse">
<stop stop-color="#9B87FF"/>
<stop offset="1" stop-color="#FF66C2"/>
</linearGradient>
<linearGradient id="paint8_linear_24_220" x1="254.5" y1="478" x2="254.5" y2="546" gradientUnits="userSpaceOnUse">
<stop stop-color="#9B87FF"/>
<stop offset="1" stop-color="#FF66C2"/>
</linearGradient>
<linearGradient id="paint9_linear_24_220" x1="404" y1="144" x2="404" y2="192" gradientUnits="userSpaceOnUse">
<stop stop-color="#9B87FF"/>
<stop offset="1" stop-color="#FF66C2"/>
</linearGradient>
<linearGradient id="paint10_linear_24_220" x1="112" y1="143" x2="112" y2="166" gradientUnits="userSpaceOnUse">
<stop stop-color="#9B87FF"/>
<stop offset="1" stop-color="#FF66C2"/>
</linearGradient>
<linearGradient id="paint11_linear_24_220" x1="139" y1="386" x2="139" y2="527" gradientUnits="userSpaceOnUse">
<stop stop-color="#9B87FF"/>
<stop offset="1" stop-color="#FF66C2"/>
</linearGradient>
</defs>
</svg>
